{
  "accessors": [
    {
      "bufferView": 2,
      "componentType": 5126,
      "count": 65532,
      "max": [
        15.313309669494629,
        16.080610275268555,
        -0.48436129093170166
      ],
      "min": [
        -16.91717529296875,
        -13.859429359436035,
        -8.614453315734863
      ],
      "type": "VEC3"
    },
    {
      "bufferView": 2,
      "byteOffset": 786384,
      "componentType": 5126,
      "count": 65532,
      "max": [
        0.9999962449073792,
        0.9999419450759888,
        0.9999998807907104
      ],
      "min": [
        -0.9999027848243713,
        -0.9999240636825562,
        -0.9999527931213379
      ],
      "type": "VEC3"
    },
    {
      "bufferView": 1,
      "componentType": 5126,
      "count": 65532,
      "max": [
        0.9983142614364624,
        0.9996076226234436
      ],
      "min": [
        9.186891838908195e-05,
        3.996654413640499e-06
      ],
      "type": "VEC2"
    },
    {
      "bufferView": 0,
      "componentType": 5125,
      "count": 347898,
      "type": "SCALAR"
    },
    {
      "bufferView": 2,
      "byteOffset": 1572768,
      "componentType": 5126,
      "count": 65532,
      "max": [
        21.71175765991211,
        23.707700729370117,
        -0.19579559564590454
      ],
      "min": [
        -23.54883575439453,
        -10.36418628692627,
        -8.456433296203613
      ],
      "type": "VEC3"
    },
    {
      "bufferView": 2,
      "byteOffset": 2359152,
      "componentType": 5126,
      "count": 65532,
      "max": [
        0.9999931454658508,
        0.9999896883964539,
        0.9999988675117493
      ],
      "min": [
        -0.9999937415122986,
        -0.999994158744812,
        -0.9990724921226501
      ],
      "type": "VEC3"
    },
    {
      "bufferView": 1,
      "byteOffset": 524256,
      "componentType": 5126,
      "count": 65532,
      "max": [
        0.9983180165290833,
        0.9998566508293152
      ],
      "min": [
        9.229406714439392e-06,
        1.2274831533432007e-05
      ],
      "type": "VEC2"
    },
    {
      "bufferView": 0,
      "byteOffset": 1391592,
      "componentType": 5125,
      "count": 341871,
      "type": "SCALAR"
    },
    {
      "bufferView": 2,
      "byteOffset": 3145536,
      "componentType": 5126,
      "count": 53347,
      "max": [
        23.143129348754883,
        19.59613609313965,
        -0.05334598571062088
      ],
      "min": [
        -17.563047409057617,
        -20.241641998291016,
        -8.881904602050781
      ],
      "type": "VEC3"
    },
    {
      "bufferView": 2,
      "byteOffset": 3785700,
      "componentType": 5126,
      "count": 53347,
      "max": [
        0.9999962449073792,
        0.9999932050704956,
        0.999998927116394
      ],
      "min": [
        -0.9999896287918091,
        -0.9999703764915466,
        -0.9999696612358093
      ],
      "type": "VEC3"
    },
    {
      "bufferView": 1,
      "byteOffset": 1048512,
      "componentType": 5126,
      "count": 53347,
      "max": [
        0.9982470273971558,
        0.9999834895133972
      ],
      "min": [
        0.00021703270613215864,
        1.2064352631568909e-05
      ],
      "type": "VEC2"
    },
    {
      "bufferView": 0,
      "byteOffset": 2759076,
      "componentType": 5125,
      "count": 260376,
      "type": "SCALAR"
    },
    {
      "bufferView": 2,
      "byteOffset": 4425864,
      "componentType": 5126,
      "count": 65532,
      "max": [
        13.628232955932617,
        17.344432830810547,
        -1.080749750137329
      ],
      "min": [
        -20.953393936157227,
        -14.474257469177246,
        -7.929783821105957
      ],
      "type": "VEC3"
    },
    {
      "bufferView": 2,
      "byteOffset": 5212248,
      "componentType": 5126,
      "count": 65532,
      "max": [
        0.9999809265136719,
        0.9999949932098389,
        0.9999997019767761
      ],
      "min": [
        -0.9999858736991882,
        -0.9999964833259583,
        -0.9999956488609314
      ],
      "type": "VEC3"
    },
    {
      "bufferView": 1,
      "byteOffset": 1475288,
      "componentType": 5126,
      "count": 65532,
      "max": [
        0.9999961256980896,
        0.9999259114265442
      ],
      "min": [
        0.00021287077106535435,
        0.00027207517996430397
      ],
      "type": "VEC2"
    },
    {
      "bufferView": 0,
      "byteOffset": 3800580,
      "componentType": 5125,
      "count": 346530,
      "type": "SCALAR"
    },
    {
      "bufferView": 2,
      "byteOffset": 5998632,
      "componentType": 5126,
      "count": 65532,
      "max": [
        17.729284286499023,
        23.970993041992188,
        -0.1058942899107933
      ],
      "min": [
        -27.934673309326172,
        -9.168355941772461,
        -8.963927268981934
      ],
      "type": "VEC3"
    },
    {
      "bufferView": 2,
      "byteOffset": 6785016,
      "componentType": 5126,
      "count": 65532,
      "max": [
        0.9999924898147583,
        0.9999939203262329,
        0.9999997019767761
      ],
      "min": [
        -0.9999667406082153,
        -0.9999790191650391,
        -0.9993346929550171
      ],
      "type": "VEC3"
    },
    {
      "bufferView": 1,
      "byteOffset": 1999544,
      "componentType": 5126,
      "count": 65532,
      "max": [
        0.9999951124191284,
        0.99998939037323
      ],
      "min": [
        2.3456988856196404e-05,
        1.721782609820366e-05
      ],
      "type": "VEC2"
    },
    {
      "bufferView": 0,
      "byteOffset": 5186700,
      "componentType": 5125,
      "count": 339108,
      "type": "SCALAR"
    },
    {
      "bufferView": 2,
      "byteOffset": 7571400,
      "componentType": 5126,
      "count": 61455,
      "max": [
        21.221065521240234,
        14.762533187866211,
        0.11551088839769363
      ],
      "min": [
        -21.36384391784668,
        -19.995229721069336,
        -8.765665054321289
      ],
      "type": "VEC3"
    },
    {
      "bufferView": 2,
      "byteOffset": 8308860,
      "componentType": 5126,
      "count": 61455,
      "max": [
        0.9999982714653015,
        0.9999802708625793,
        0.9999996423721313
      ],
      "min": [
        -0.999996542930603,
        -0.9999801516532898,
        -0.9999674558639526
      ],
      "type": "VEC3"
    },
    {
      "bufferView": 1,
      "byteOffset": 2523800,
      "componentType": 5126,
      "count": 61455,
      "max": [
        0.9999942183494568,
        0.999981164932251
      ],
      "min": [
        4.161286142334575e-06,
        2.2852851543575525e-05
      ],
      "type": "VEC2"
    },
    {
      "bufferView": 0,
      "byteOffset": 6543132,
      "componentType": 5125,
      "count": 306309,
      "type": "SCALAR"
    },
    {
      "bufferView": 2,
      "byteOffset": 9046320,
      "componentType": 5126,
      "count": 65532,
      "max": [
        10.613799095153809,
        17.34848403930664,
        -0.7849699854850769
      ],
      "min": [
        -22.432825088500977,
        -13.914996147155762,
        -8.190290451049805
      ],
      "type": "VEC3"
    },
    {
      "bufferView": 2,
      "byteOffset": 9832704,
      "componentType": 5126,
      "count": 65532,
      "max": [
        0.9999982714653015,
        0.9999721646308899,
        1.0
      ],
      "min": [
        -0.9999905228614807,
        -0.999988317489624,
        -0.9999278783798218
      ],
      "type": "VEC3"
    },
    {
      "bufferView": 1,
      "byteOffset": 3015440,
      "componentType": 5126,
      "count": 65532,
      "max": [
        0.9999296069145203,
        0.999678373336792
      ],
      "min": [
        0.00031554087763652205,
        0.000309627503156662
      ],
      "type": "VEC2"
    },
    {
      "bufferView": 0,
      "byteOffset": 7768368,
      "componentType": 5125,
      "count": 347814,
      "type": "SCALAR"
    },
    {
      "bufferView": 2,
      "byteOffset": 10619088,
      "componentType": 5126,
      "count": 65532,
      "max": [
        19.524829864501953,
        23.047958374023438,
        -0.41229209303855896
      ],
      "min": [
        -26.177040100097656,
        -7.211615562438965,
        -8.55395793914795
      ],
      "type": "VEC3"
    },
    {
      "bufferView": 2,
      "byteOffset": 11405472,
      "componentType": 5126,
      "count": 65532,
      "max": [
        0.9999982714653015,
        0.9997602701187134,
        1.0
      ],
      "min": [
        -0.9999710321426392,
        -0.999974250793457,
        -0.9999479651451111
      ],
      "type": "VEC3"
    },
    {
      "bufferView": 1,
      "byteOffset": 3539696,
      "componentType": 5126,
      "count": 65532,
      "max": [
        0.9999747276306152,
        0.9998096823692322
      ],
      "min": [
        1.4533013370510162e-07,
        2.8162263333797455e-05
      ],
      "type": "VEC2"
    },
    {
      "bufferView": 0,
      "byteOffset": 9159624,
      "componentType": 5125,
      "count": 339165,
      "type": "SCALAR"
    },
    {
      "bufferView": 2,
      "byteOffset": 12191856,
      "componentType": 5126,
      "count": 65532,
      "max": [
        21.519800186157227,
        17.76766586303711,
        -0.08538792282342911
      ],
      "min": [
        -18.14768409729004,
        -21.37282943725586,
        -9.033844947814941
      ],
      "type": "VEC3"
    },
    {
      "bufferView": 2,
      "byteOffset": 12978240,
      "componentType": 5126,
      "count": 65532,
      "max": [
        0.9999960064888,
        0.9999721646308899,
        1.0
      ],
      "min": [
        -0.9999824166297913,
        -0.9998989701271057,
        -0.9999397993087769
      ],
      "type": "VEC3"
    },
    {
      "bufferView": 1,
      "byteOffset": 4063952,
      "componentType": 5126,
      "count": 65532,
      "max": [
        0.9999966621398926,
        0.9998677372932434
      ],
      "min": [
        3.8032885640859604e-07,
        5.662441253662109e-06
      ],
      "type": "VEC2"
    },
    {
      "bufferView": 0,
      "byteOffset": 10516284,
      "componentType": 5125,
      "count": 331992,
      "type": "SCALAR"
    },
    {
      "bufferView": 2,
      "byteOffset": 13764624,
      "componentType": 5126,
      "count": 7871,
      "max": [
        -3.205254554748535,
        11.258220672607422,
        -0.49651187658309937
      ],
      "min": [
        -21.68584442138672,
        -11.68961238861084,
        -8.487994194030762
      ],
      "type": "VEC3"
    },
    {
      "bufferView": 2,
      "byteOffset": 13859076,
      "componentType": 5126,
      "count": 7871,
      "max": [
        0.9999576210975647,
        0.9998428225517273,
        0.9999920725822449
      ],
      "min": [
        -0.9997283816337585,
        -0.9998148083686829,
        -0.9890047907829285
      ],
      "type": "VEC3"
    },
    {
      "bufferView": 1,
      "byteOffset": 4588208,
      "componentType": 5126,
      "count": 7871,
      "max": [
        0.9999251365661621,
        0.9993624091148376
      ],
      "min": [
        0.00014503901184070855,
        0.0010229377076029778
      ],
      "type": "VEC2"
    },
    {
      "bufferView": 0,
      "byteOffset": 11844252,
      "componentType": 5125,
      "count": 38838,
      "type": "SCALAR"
    }
  ],
  "asset": {
    "extras": {
      "author": "FUD-UJEP (https://sketchfab.com/FUD-UJEP)",
      "license": "CC-BY-4.0 (http://creativecommons.org/licenses/by/4.0/)",
      "source": "https://sketchfab.com/3d-models/ancient-corinth-d44e108cdbf644a492330e94ca20dfc7",
      "title": "Ancient Corinth"
    },
    "generator": "Sketchfab-12.68.0",
    "version": "2.0"
  },
  "bufferViews": [
    {
      "buffer": 0,
      "byteLength": 11999604,
      "name": "floatBufferViews",
      "target": 34963
    },
    {
      "buffer": 0,
      "byteLength": 4651176,
      "byteOffset": 11999604,
      "byteStride": 8,
      "name": "floatBufferViews",
      "target": 34962
    },
    {
      "buffer": 0,
      "byteLength": 13953528,
      "byteOffset": 16650780,
      "byteStride": 12,
      "name": "floatBufferViews",
      "target": 34962
    }
  ],
  "buffers": [
    {
      "byteLength": 30604308,
      "uri": "scene.bin"
    }
  ],
  "extensionsUsed": [
    "KHR_materials_unlit"
  ],
  "images": [
    {
      "uri": "textures/material2_baseColor.jpeg"
    },
    {
      "uri": "textures/material1_baseColor.jpeg"
    },
    {
      "uri": "textures/material0_baseColor.jpeg"
    }
  ],
  "materials": [
    {
      "doubleSided": true,
      "extensions": {
        "KHR_materials_unlit": {}
      },
      "name": "material2",
      "pbrMetallicRoughness": {
        "baseColorTexture": {
          "index": 0
        },
        "metallicFactor": 0.0
      }
    },
    {
      "doubleSided": true,
      "extensions": {
        "KHR_materials_unlit": {}
      },
      "name": "material1",
      "pbrMetallicRoughness": {
        "baseColorTexture": {
          "index": 1
        },
        "metallicFactor": 0.0
      }
    },
    {
      "doubleSided": true,
      "extensions": {
        "KHR_materials_unlit": {}
      },
      "name": "material0",
      "pbrMetallicRoughness": {
        "baseColorTexture": {
          "index": 2
        },
        "metallicFactor": 0.0
      }
    }
  ],
  "meshes": [
    {
      "name": "Model_material2_0",
      "primitives": [
        {
          "attributes": {
            "NORMAL": 1,
            "POSITION": 0,
            "TEXCOORD_0": 2
          },
          "indices": 3,
          "material": 0,
          "mode": 4
        }
      ]
    },
    {
      "name": "Model_material2_0",
      "primitives": [
        {
          "attributes": {
            "NORMAL": 5,
            "POSITION": 4,
            "TEXCOORD_0": 6
          },
          "indices": 7,
          "material": 0,
          "mode": 4
        }
      ]
    },
    {
      "name": "Model_material2_0",
      "primitives": [
        {
          "attributes": {
            "NORMAL": 9,
            "POSITION": 8,
            "TEXCOORD_0": 10
          },
          "indices": 11,
          "material": 0,
          "mode": 4
        }
      ]
    },
    {
      "name": "Model_material1_0",
      "primitives": [
        {
          "attributes": {
            "NORMAL": 13,
            "POSITION": 12,
            "TEXCOORD_0": 14
          },
          "indices": 15,
          "material": 1,
          "mode": 4
        }
      ]
    },
    {
      "name": "Model_material1_0",
      "primitives": [
        {
          "attributes": {
            "NORMAL": 17,
            "POSITION": 16,
            "TEXCOORD_0": 18
          },
          "indices": 19,
          "material": 1,
          "mode": 4
        }
      ]
    },
    {
      "name": "Model_material1_0",
      "primitives": [
        {
          "attributes": {
            "NORMAL": 21,
            "POSITION": 20,
            "TEXCOORD_0": 22
          },
          "indices": 23,
          "material": 1,
          "mode": 4
        }
      ]
    },
    {
      "name": "Model_material0_0",
      "primitives": [
        {
          "attributes": {
            "NORMAL": 25,
            "POSITION": 24,
            "TEXCOORD_0": 26
          },
          "indices": 27,
          "material": 2,
          "mode": 4
        }
      ]
    },
    {
      "name": "Model_material0_0",
      "primitives": [
        {
          "attributes": {
            "NORMAL": 29,
            "POSITION": 28,
            "TEXCOORD_0": 30
          },
          "indices": 31,
          "material": 2,
          "mode": 4
        }
      ]
    },
    {
      "name": "Model_material0_0",
      "primitives": [
        {
          "attributes": {
            "NORMAL": 33,
            "POSITION": 32,
            "TEXCOORD_0": 34
          },
          "indices": 35,
          "material": 2,
          "mode": 4
        }
      ]
    },
    {
      "name": "Model_material0_0",
      "primitives": [
        {
          "attributes": {
            "NORMAL": 37,
            "POSITION": 36,
            "TEXCOORD_0": 38
          },
          "indices": 39,
          "material": 2,
          "mode": 4
        }
      ]
    }
  ],
  "nodes": [
    {
      "children": [
        1
      ],
      "matrix": [
        -0.6998830217841459,
        0.01598456517822651,
        -0.32020703840289144,
        0.0,
        0.3202760722394373,
        1.5477104580781857e-16,
        -0.7000339372300743,
        0.0,
        -0.014535507036727235,
        -0.7696549628794997,
        -0.006650213702350698,
        0.0,
        -3.949232816696167,
        8.967093467712402,
        -0.8402360677719096,
        1.0
      ],
      "name": "Sketchfab_model"
    },
    {
      "children": [
        2
      ],
      "matrix": [
        1.0,
        0.0,
        0.0,
        0.0,
        0.0,
        -1.0,
        0.0,
        0.0,
        0.0,
        0.0,
        -1.0,
        0.0,
        0.0,
        0.0,
        0.0,
        1.0
      ],
      "name": "Ancient-Corinth.fbx"
    },
    {
      "children": [
        3
      ],
      "name": "RootNode"
    },
    {
      "children": [
        4,
        5,
        6,
        7,
        8,
        9,
        10,
        11,
        12,
        13
      ],
      "name": "Model"
    },
    {
      "mesh": 0,
      "name": "Model_material2_0"
    },
    {
      "mesh": 1,
      "name": "Model_material2_0"
    },
    {
      "mesh": 2,
      "name": "Model_material2_0"
    },
    {
      "mesh": 3,
      "name": "Model_material1_0"
    },
    {
      "mesh": 4,
      "name": "Model_material1_0"
    },
    {
      "mesh": 5,
      "name": "Model_material1_0"
    },
    {
      "mesh": 6,
      "name": "Model_material0_0"
    },
    {
      "mesh": 7,
      "name": "Model_material0_0"
    },
    {
      "mesh": 8,
      "name": "Model_material0_0"
    },
    {
      "mesh": 9,
      "name": "Model_material0_0"
    }
  ],
  "samplers": [
    {
      "magFilter": 9729,
      "minFilter": 9987,
      "wrapS": 10497,
      "wrapT": 10497
    }
  ],
  "scene": 0,
  "scenes": [
    {
      "name": "Sketchfab_Scene",
      "nodes": [
        0
      ]
    }
  ],
  "textures": [
    {
      "sampler": 0,
      "source": 0
    },
    {
      "sampler": 0,
      "source": 1
    },
    {
      "sampler": 0,
      "source": 2
    }
  ]
}
