{
  "accessors": [
    {
      "bufferView": 2,
      "componentType": 5126,
      "count": 65532,
      "max": [
        40.07246398925781,
        44.865482330322266,
        10.327345848083496
      ],
      "min": [
        -39.2805290222168,
        -55.959625244140625,
        -13.840167999267578
      ],
      "type": "VEC3"
    },
    {
      "bufferView": 2,
      "byteOffset": 786384,
      "componentType": 5126,
      "count": 65532,
      "max": [
        0.9997797012329102,
        0.9999203681945801,
        0.9999997019767761
      ],
      "min": [
        -0.9999166131019592,
        -0.9999464154243469,
        -0.9922717213630676
      ],
      "type": "VEC3"
    },
    {
      "bufferView": 1,
      "componentType": 5126,
      "count": 65532,
      "max": [
        0.9860280156135559,
        0.9915189743041992
      ],
      "min": [
        0.01127300038933754,
        0.013495000079274178
      ],
      "type": "VEC2"
    },
    {
      "bufferView": 0,
      "componentType": 5125,
      "count": 283551,
      "type": "SCALAR"
    },
    {
      "bufferView": 2,
      "byteOffset": 1572768,
      "componentType": 5126,
      "count": 65532,
      "max": [
        37.88193893432617,
        39.75325393676758,
        10.982083320617676
      ],
      "min": [
        -46.347999572753906,
        -57.02638244628906,
        -13.870508193969727
      ],
      "type": "VEC3"
    },
    {
      "bufferView": 2,
      "byteOffset": 2359152,
      "componentType": 5126,
      "count": 65532,
      "max": [
        0.9999717473983765,
        0.999982476234436,
        0.999998152256012
      ],
      "min": [
        -0.9999806880950928,
        -0.9999929666519165,
        -0.9849458336830139
      ],
      "type": "VEC3"
    },
    {
      "bufferView": 1,
      "byteOffset": 524256,
      "componentType": 5126,
      "count": 65532,
      "max": [
        0.9992669820785522,
        0.988785982131958
      ],
      "min": [
        0.002216000109910965,
        0.0028039999306201935
      ],
      "type": "VEC2"
    },
    {
      "bufferView": 0,
      "byteOffset": 1134204,
      "componentType": 5125,
      "count": 277254,
      "type": "SCALAR"
    },
    {
      "bufferView": 2,
      "byteOffset": 3145536,
      "componentType": 5126,
      "count": 65532,
      "max": [
        46.34799575805664,
        64.24800109863281,
        14.97126579284668
      ],
      "min": [
        -46.347999572753906,
        -59.679168701171875,
        -14.679100036621094
      ],
      "type": "VEC3"
    },
    {
      "bufferView": 2,
      "byteOffset": 3931920,
      "componentType": 5126,
      "count": 65532,
      "max": [
        0.9999192953109741,
        0.9999773502349854,
        0.9999997615814209
      ],
      "min": [
        -0.9999836087226868,
        -0.9999911785125732,
        -0.9967021346092224
      ],
      "type": "VEC3"
    },
    {
      "bufferView": 1,
      "byteOffset": 1048512,
      "componentType": 5126,
      "count": 65532,
      "max": [
        0.9959419965744019,
        0.9996089935302734
      ],
      "min": [
        0.0037930000107735395,
        0.0008099999977275729
      ],
      "type": "VEC2"
    },
    {
      "bufferView": 0,
      "byteOffset": 2243220,
      "componentType": 5125,
      "count": 279669,
      "type": "SCALAR"
    },
    {
      "bufferView": 2,
      "byteOffset": 4718304,
      "componentType": 5126,
      "count": 65532,
      "max": [
        35.64836883544922,
        41.47346115112305,
        11.96524429321289
      ],
      "min": [
        -46.347999572753906,
        -56.77728271484375,
        -13.85035514831543
      ],
      "type": "VEC3"
    },
    {
      "bufferView": 2,
      "byteOffset": 5504688,
      "componentType": 5126,
      "count": 65532,
      "max": [
        0.9998924732208252,
        0.9999123215675354,
        0.999987006187439
      ],
      "min": [
        -0.9998884201049805,
        -0.9999923706054688,
        -0.9757686257362366
      ],
      "type": "VEC3"
    },
    {
      "bufferView": 1,
      "byteOffset": 1572768,
      "componentType": 5126,
      "count": 65532,
      "max": [
        0.9994019865989685,
        0.9985550045967102
      ],
      "min": [
        0.004261999856680632,
        0.0007719999994151294
      ],
      "type": "VEC2"
    },
    {
      "bufferView": 0,
      "byteOffset": 3361896,
      "componentType": 5125,
      "count": 279213,
      "type": "SCALAR"
    },
    {
      "bufferView": 2,
      "byteOffset": 6291072,
      "componentType": 5126,
      "count": 65532,
      "max": [
        46.34799575805664,
        64.24800109863281,
        14.883692741394043
      ],
      "min": [
        -46.16097640991211,
        -59.828189849853516,
        -13.872896194458008
      ],
      "type": "VEC3"
    },
    {
      "bufferView": 2,
      "byteOffset": 7077456,
      "componentType": 5126,
      "count": 65532,
      "max": [
        0.9999554753303528,
        0.9998151063919067,
        0.9999917149543762
      ],
      "min": [
        -0.9999834895133972,
        -0.9999890327453613,
        -0.9996863007545471
      ],
      "type": "VEC3"
    },
    {
      "bufferView": 1,
      "byteOffset": 2097024,
      "componentType": 5126,
      "count": 65532,
      "max": [
        0.9991599917411804,
        0.9967629909515381
      ],
      "min": [
        0.00021300000662449747,
        0.003252000082284212
      ],
      "type": "VEC2"
    },
    {
      "bufferView": 0,
      "byteOffset": 4478748,
      "componentType": 5125,
      "count": 277866,
      "type": "SCALAR"
    },
    {
      "bufferView": 2,
      "byteOffset": 7863840,
      "componentType": 5126,
      "count": 65532,
      "max": [
        42.853878021240234,
        46.78233337402344,
        10.354493141174316
      ],
      "min": [
        -44.08892822265625,
        -63.32706832885742,
        -13.850093841552734
      ],
      "type": "VEC3"
    },
    {
      "bufferView": 2,
      "byteOffset": 8650224,
      "componentType": 5126,
      "count": 65532,
      "max": [
        0.9999554753303528,
        0.9998151063919067,
        0.9999998211860657
      ],
      "min": [
        -0.9998495578765869,
        -0.9999880194664001,
        -0.9759172797203064
      ],
      "type": "VEC3"
    },
    {
      "bufferView": 1,
      "byteOffset": 2621280,
      "componentType": 5126,
      "count": 65532,
      "max": [
        1.0,
        0.9965190291404724
      ],
      "min": [
        0.0014430000446736813,
        0.000990999978967011
      ],
      "type": "VEC2"
    },
    {
      "bufferView": 0,
      "byteOffset": 5590212,
      "componentType": 5125,
      "count": 275253,
      "type": "SCALAR"
    },
    {
      "bufferView": 2,
      "byteOffset": 9436608,
      "componentType": 5126,
      "count": 65532,
      "max": [
        43.2035026550293,
        59.53430938720703,
        13.203600883483887
      ],
      "min": [
        -46.347999572753906,
        -60.37827682495117,
        -13.806352615356445
      ],
      "type": "VEC3"
    },
    {
      "bufferView": 2,
      "byteOffset": 10222992,
      "componentType": 5126,
      "count": 65532,
      "max": [
        0.9999895095825195,
        0.9999960660934448,
        0.999999463558197
      ],
      "min": [
        -0.9998331069946289,
        -0.9999998807907104,
        -0.9767114520072937
      ],
      "type": "VEC3"
    },
    {
      "bufferView": 1,
      "byteOffset": 3145536,
      "componentType": 5126,
      "count": 65532,
      "max": [
        0.9996899962425232,
        0.9993540048599243
      ],
      "min": [
        0.0011360000353306532,
        0.0
      ],
      "type": "VEC2"
    },
    {
      "bufferView": 0,
      "byteOffset": 6691224,
      "componentType": 5125,
      "count": 272103,
      "type": "SCALAR"
    },
    {
      "bufferView": 2,
      "byteOffset": 11009376,
      "componentType": 5126,
      "count": 65532,
      "max": [
        46.34799575805664,
        64.24800109863281,
        14.237959861755371
      ],
      "min": [
        -46.347999572753906,
        -59.142852783203125,
        -14.157909393310547
      ],
      "type": "VEC3"
    },
    {
      "bufferView": 2,
      "byteOffset": 11795760,
      "componentType": 5126,
      "count": 65532,
      "max": [
        0.9999098777770996,
        0.9998941421508789,
        0.9999988675117493
      ],
      "min": [
        -0.9999613761901855,
        -0.9999854564666748,
        -0.9967021346092224
      ],
      "type": "VEC3"
    },
    {
      "bufferView": 1,
      "byteOffset": 3669792,
      "componentType": 5126,
      "count": 65532,
      "max": [
        0.999925971031189,
        0.9991790056228638
      ],
      "min": [
        0.0,
        0.0007479999912902713
      ],
      "type": "VEC2"
    },
    {
      "bufferView": 0,
      "byteOffset": 7779636,
      "componentType": 5125,
      "count": 271662,
      "type": "SCALAR"
    },
    {
      "bufferView": 2,
      "byteOffset": 12582144,
      "componentType": 5126,
      "count": 65532,
      "max": [
        46.34799575805664,
        57.60908126831055,
        12.143940925598145
      ],
      "min": [
        -46.347999572753906,
        -60.80278396606445,
        -13.785314559936523
      ],
      "type": "VEC3"
    },
    {
      "bufferView": 2,
      "byteOffset": 13368528,
      "componentType": 5126,
      "count": 65532,
      "max": [
        0.9999880790710449,
        0.9998797178268433,
        0.9999994039535522
      ],
      "min": [
        -0.9999790191650391,
        -0.9999929666519165,
        -0.9992775917053223
      ],
      "type": "VEC3"
    },
    {
      "bufferView": 1,
      "byteOffset": 4194048,
      "componentType": 5126,
      "count": 65532,
      "max": [
        0.9998189806938171,
        0.9988800287246704
      ],
      "min": [
        0.0003420000139158219,
        0.0008370000286959112
      ],
      "type": "VEC2"
    },
    {
      "bufferView": 0,
      "byteOffset": 8866284,
      "componentType": 5125,
      "count": 261858,
      "type": "SCALAR"
    },
    {
      "bufferView": 2,
      "byteOffset": 14154912,
      "componentType": 5126,
      "count": 65532,
      "max": [
        46.34799575805664,
        64.24800109863281,
        14.204974174499512
      ],
      "min": [
        -46.347999572753906,
        -64.24800109863281,
        -13.847742080688477
      ],
      "type": "VEC3"
    },
    {
      "bufferView": 2,
      "byteOffset": 14941296,
      "componentType": 5126,
      "count": 65532,
      "max": [
        0.9997926354408264,
        0.999982476234436,
        0.9999988675117493
      ],
      "min": [
        -0.9999939203262329,
        -0.9999905228614807,
        -0.9998384118080139
      ],
      "type": "VEC3"
    },
    {
      "bufferView": 1,
      "byteOffset": 4718304,
      "componentType": 5126,
      "count": 65532,
      "max": [
        0.9999380111694336,
        0.9993199706077576
      ],
      "min": [
        0.0009009999921545386,
        0.0002789999998640269
      ],
      "type": "VEC2"
    },
    {
      "bufferView": 0,
      "byteOffset": 9913716,
      "componentType": 5125,
      "count": 250227,
      "type": "SCALAR"
    },
    {
      "bufferView": 2,
      "byteOffset": 15727680,
      "componentType": 5126,
      "count": 65532,
      "max": [
        46.34799575805664,
        62.453155517578125,
        14.498505592346191
      ],
      "min": [
        -46.347999572753906,
        -64.24800109863281,
        -14.971269607543945
      ],
      "type": "VEC3"
    },
    {
      "bufferView": 2,
      "byteOffset": 16514064,
      "componentType": 5126,
      "count": 65532,
      "max": [
        0.9999554753303528,
        0.9999960660934448,
        0.9999976754188538
      ],
      "min": [
        -0.9999088644981384,
        -0.9999698996543884,
        -0.9998384118080139
      ],
      "type": "VEC3"
    },
    {
      "bufferView": 1,
      "byteOffset": 5242560,
      "componentType": 5126,
      "count": 65532,
      "max": [
        0.9999849796295166,
        0.9995229840278625
      ],
      "min": [
        6.299999949987978e-05,
        0.0001289999927394092
      ],
      "type": "VEC2"
    },
    {
      "bufferView": 0,
      "byteOffset": 10914624,
      "componentType": 5125,
      "count": 229842,
      "type": "SCALAR"
    },
    {
      "bufferView": 2,
      "byteOffset": 17300448,
      "componentType": 5126,
      "count": 65532,
      "max": [
        46.347999572753906,
        64.24800109863281,
        14.651846885681152
      ],
      "min": [
        -46.347999572753906,
        -59.60853576660156,
        -14.222196578979492
      ],
      "type": "VEC3"
    },
    {
      "bufferView": 2,
      "byteOffset": 18086832,
      "componentType": 5126,
      "count": 65532,
      "max": [
        1.0,
        0.9999399781227112,
        0.9999998211860657
      ],
      "min": [
        -0.999997079372406,
        -0.9999880194664001,
        -0.9992627501487732
      ],
      "type": "VEC3"
    },
    {
      "bufferView": 1,
      "byteOffset": 5766816,
      "componentType": 5126,
      "count": 65532,
      "max": [
        0.9997119903564453,
        0.9994300007820129
      ],
      "min": [
        0.000455000001238659,
        0.00010099999781232327
      ],
      "type": "VEC2"
    },
    {
      "bufferView": 0,
      "byteOffset": 11833992,
      "componentType": 5125,
      "count": 193449,
      "type": "SCALAR"
    },
    {
      "bufferView": 2,
      "byteOffset": 18873216,
      "componentType": 5126,
      "count": 65532,
      "max": [
        46.34799575805664,
        64.24800109863281,
        14.85459041595459
      ],
      "min": [
        -46.347999572753906,
        -64.21293640136719,
        -14.239168167114258
      ],
      "type": "VEC3"
    },
    {
      "bufferView": 2,
      "byteOffset": 19659600,
      "componentType": 5126,
      "count": 65532,
      "max": [
        0.9999895095825195,
        0.9998407959938049,
        0.999998152256012
      ],
      "min": [
        -0.9999901652336121,
        -0.9999942779541016,
        -0.9998384118080139
      ],
      "type": "VEC3"
    },
    {
      "bufferView": 1,
      "byteOffset": 6291072,
      "componentType": 5126,
      "count": 65532,
      "max": [
        1.0,
        0.9993360042572021
      ],
      "min": [
        0.0,
        0.00017800000205170363
      ],
      "type": "VEC2"
    },
    {
      "bufferView": 0,
      "byteOffset": 12607788,
      "componentType": 5125,
      "count": 195069,
      "type": "SCALAR"
    },
    {
      "bufferView": 2,
      "byteOffset": 20445984,
      "componentType": 5126,
      "count": 65532,
      "max": [
        46.34799575805664,
        64.24800109863281,
        14.942402839660645
      ],
      "min": [
        -46.347999572753906,
        -64.24800109863281,
        -14.679100036621094
      ],
      "type": "VEC3"
    },
    {
      "bufferView": 2,
      "byteOffset": 21232368,
      "componentType": 5126,
      "count": 65532,
      "max": [
        0.9998282790184021,
        0.9999123215675354,
        0.999999463558197
      ],
      "min": [
        -0.9999806880950928,
        -0.9999942779541016,
        -0.99980628490448
      ],
      "type": "VEC3"
    },
    {
      "bufferView": 1,
      "byteOffset": 6815328,
      "componentType": 5126,
      "count": 65532,
      "max": [
        1.0,
        0.9999510049819946
      ],
      "min": [
        0.0,
        0.0
      ],
      "type": "VEC2"
    },
    {
      "bufferView": 0,
      "byteOffset": 13388064,
      "componentType": 5125,
      "count": 120141,
      "type": "SCALAR"
    },
    {
      "bufferView": 2,
      "byteOffset": 22018752,
      "componentType": 5126,
      "count": 57152,
      "max": [
        46.34799575805664,
        64.24800109863281,
        14.592408180236816
      ],
      "min": [
        -46.347999572753906,
        -63.135746002197266,
        -13.888336181640625
      ],
      "type": "VEC3"
    },
    {
      "bufferView": 2,
      "byteOffset": 22704576,
      "componentType": 5126,
      "count": 57152,
      "max": [
        0.9999071955680847,
        0.9999194741249084,
        0.999999463558197
      ],
      "min": [
        -0.9999334216117859,
        -0.9999622702598572,
        -0.9984285831451416
      ],
      "type": "VEC3"
    },
    {
      "bufferView": 1,
      "byteOffset": 7339584,
      "componentType": 5126,
      "count": 57152,
      "max": [
        1.0,
        0.9999949932098389
      ],
      "min": [
        0.0004189999890513718,
        0.0
      ],
      "type": "VEC2"
    },
    {
      "bufferView": 0,
      "byteOffset": 13868628,
      "componentType": 5125,
      "count": 71847,
      "type": "SCALAR"
    }
  ],
  "asset": {
    "extras": {
      "author": "Andrea Spognetta (Spogna) (https://sketchfab.com/spogna)",
      "license": "CC-BY-NC-4.0 (http://creativecommons.org/licenses/by-nc/4.0/)",
      "source": "https://sketchfab.com/3d-models/mar-saba-monastery-rawscan-65cd2eee84544eea856c0215dd67bc3d",
      "title": "Mar Saba Monastery  -RAWscan"
    },
    "generator": "Sketchfab-12.67.0",
    "version": "2.0"
  },
  "bufferViews": [
    {
      "buffer": 0,
      "byteLength": 14156016,
      "name": "floatBufferViews",
      "target": 34963
    },
    {
      "buffer": 0,
      "byteLength": 7796800,
      "byteOffset": 14156016,
      "byteStride": 8,
      "name": "floatBufferViews",
      "target": 34962
    },
    {
      "buffer": 0,
      "byteLength": 23390400,
      "byteOffset": 21952816,
      "byteStride": 12,
      "name": "floatBufferViews",
      "target": 34962
    }
  ],
  "buffers": [
    {
      "byteLength": 45343216,
      "uri": "scene.bin"
    }
  ],
  "extensionsUsed": [
    "KHR_materials_unlit"
  ],
  "images": [
    {
      "uri": "textures/material_0_baseColor.jpeg"
    }
  ],
  "materials": [
    {
      "doubleSided": true,
      "extensions": {
        "KHR_materials_unlit": {}
      },
      "name": "material_0",
      "pbrMetallicRoughness": {
        "baseColorTexture": {
          "index": 0
        },
        "metallicFactor": 0.0
      }
    }
  ],
  "meshes": [
    {
      "name": "Object_0",
      "primitives": [
        {
          "attributes": {
            "NORMAL": 1,
            "POSITION": 0,
            "TEXCOORD_0": 2
          },
          "indices": 3,
          "material": 0,
          "mode": 4
        }
      ]
    },
    {
      "name": "Object_1",
      "primitives": [
        {
          "attributes": {
            "NORMAL": 5,
            "POSITION": 4,
            "TEXCOORD_0": 6
          },
          "indices": 7,
          "material": 0,
          "mode": 4
        }
      ]
    },
    {
      "name": "Object_2",
      "primitives": [
        {
          "attributes": {
            "NORMAL": 9,
            "POSITION": 8,
            "TEXCOORD_0": 10
          },
          "indices": 11,
          "material": 0,
          "mode": 4
        }
      ]
    },
    {
      "name": "Object_3",
      "primitives": [
        {
          "attributes": {
            "NORMAL": 13,
            "POSITION": 12,
            "TEXCOORD_0": 14
          },
          "indices": 15,
          "material": 0,
          "mode": 4
        }
      ]
    },
    {
      "name": "Object_4",
      "primitives": [
        {
          "attributes": {
            "NORMAL": 17,
            "POSITION": 16,
            "TEXCOORD_0": 18
          },
          "indices": 19,
          "material": 0,
          "mode": 4
        }
      ]
    },
    {
      "name": "Object_5",
      "primitives": [
        {
          "attributes": {
            "NORMAL": 21,
            "POSITION": 20,
            "TEXCOORD_0": 22
          },
          "indices": 23,
          "material": 0,
          "mode": 4
        }
      ]
    },
    {
      "name": "Object_6",
      "primitives": [
        {
          "attributes": {
            "NORMAL": 25,
            "POSITION": 24,
            "TEXCOORD_0": 26
          },
          "indices": 27,
          "material": 0,
          "mode": 4
        }
      ]
    },
    {
      "name": "Object_7",
      "primitives": [
        {
          "attributes": {
            "NORMAL": 29,
            "POSITION": 28,
            "TEXCOORD_0": 30
          },
          "indices": 31,
          "material": 0,
          "mode": 4
        }
      ]
    },
    {
      "name": "Object_8",
      "primitives": [
        {
          "attributes": {
            "NORMAL": 33,
            "POSITION": 32,
            "TEXCOORD_0": 34
          },
          "indices": 35,
          "material": 0,
          "mode": 4
        }
      ]
    },
    {
      "name": "Object_9",
      "primitives": [
        {
          "attributes": {
            "NORMAL": 37,
            "POSITION": 36,
            "TEXCOORD_0": 38
          },
          "indices": 39,
          "material": 0,
          "mode": 4
        }
      ]
    },
    {
      "name": "Object_10",
      "primitives": [
        {
          "attributes": {
            "NORMAL": 41,
            "POSITION": 40,
            "TEXCOORD_0": 42
          },
          "indices": 43,
          "material": 0,
          "mode": 4
        }
      ]
    },
    {
      "name": "Object_11",
      "primitives": [
        {
          "attributes": {
            "NORMAL": 45,
            "POSITION": 44,
            "TEXCOORD_0": 46
          },
          "indices": 47,
          "material": 0,
          "mode": 4
        }
      ]
    },
    {
      "name": "Object_12",
      "primitives": [
        {
          "attributes": {
            "NORMAL": 49,
            "POSITION": 48,
            "TEXCOORD_0": 50
          },
          "indices": 51,
          "material": 0,
          "mode": 4
        }
      ]
    },
    {
      "name": "Object_13",
      "primitives": [
        {
          "attributes": {
            "NORMAL": 53,
            "POSITION": 52,
            "TEXCOORD_0": 54
          },
          "indices": 55,
          "material": 0,
          "mode": 4
        }
      ]
    },
    {
      "name": "Object_14",
      "primitives": [
        {
          "attributes": {
            "NORMAL": 57,
            "POSITION": 56,
            "TEXCOORD_0": 58
          },
          "indices": 59,
          "material": 0,
          "mode": 4
        }
      ]
    }
  ],
  "nodes": [
    {
      "children": [
        1
      ],
      "matrix": [
        1.0,
        0.0,
        0.0,
        0.0,
        0.0,
        2.220446049250313e-16,
        -1.0,
        0.0,
        0.0,
        1.0,
        2.220446049250313e-16,
        0.0,
        0.0,
        0.0,
        0.0,
        1.0
      ],
      "name": "Sketchfab_model"
    },
    {
      "children": [
        2,
        3,
        4,
        5,
        6,
        7,
        8,
        9,
        10,
        11,
        12,
        13,
        14,
        15,
        16
      ],
      "name": "MarSaba.obj.cleaner.materialmerger.gles"
    },
    {
      "mesh": 0,
      "name": "Object_2"
    },
    {
      "mesh": 1,
      "name": "Object_3"
    },
    {
      "mesh": 2,
      "name": "Object_4"
    },
    {
      "mesh": 3,
      "name": "Object_5"
    },
    {
      "mesh": 4,
      "name": "Object_6"
    },
    {
      "mesh": 5,
      "name": "Object_7"
    },
    {
      "mesh": 6,
      "name": "Object_8"
    },
    {
      "mesh": 7,
      "name": "Object_9"
    },
    {
      "mesh": 8,
      "name": "Object_10"
    },
    {
      "mesh": 9,
      "name": "Object_11"
    },
    {
      "mesh": 10,
      "name": "Object_12"
    },
    {
      "mesh": 11,
      "name": "Object_13"
    },
    {
      "mesh": 12,
      "name": "Object_14"
    },
    {
      "mesh": 13,
      "name": "Object_15"
    },
    {
      "mesh": 14,
      "name": "Object_16"
    }
  ],
  "samplers": [
    {
      "magFilter": 9729,
      "minFilter": 9987,
      "wrapS": 10497,
      "wrapT": 10497
    }
  ],
  "scene": 0,
  "scenes": [
    {
      "name": "Sketchfab_Scene",
      "nodes": [
        0
      ]
    }
  ],
  "textures": [
    {
      "sampler": 0,
      "source": 0
    }
  ]
}
