{
  "accessors": [
    {
      "bufferView": 2,
      "componentType": 5126,
      "count": 65532,
      "max": [
        4.510768890380859,
        -2.0507707595825195,
        -6.650384902954102
      ],
      "min": [
        -3.0922281742095947,
        -3.7081491947174072,
        -14.26302719116211
      ],
      "type": "VEC3"
    },
    {
      "bufferView": 2,
      "byteOffset": 786384,
      "componentType": 5126,
      "count": 65532,
      "max": [
        0.999533474445343,
        0.9999972581863403,
        0.999843418598175
      ],
      "min": [
        -0.9994031190872192,
        -0.9999282956123352,
        -0.9998711347579956
      ],
      "type": "VEC3"
    },
    {
      "bufferView": 3,
      "componentType": 5126,
      "count": 65532,
      "max": [
        0.9999172687530518,
        1.0,
        0.9999998211860657,
        1.0
      ],
      "min": [
        -0.9999988675117493,
        -0.9999922513961792,
        -0.9999973177909851,
        -1.0
      ],
      "type": "VEC4"
    },
    {
      "bufferView": 1,
      "componentType": 5126,
      "count": 65532,
      "max": [
        0.9150999784469604,
        0.8894199728965759
      ],
      "min": [
        0.0038499999791383743,
        0.004209999926388264
      ],
      "type": "VEC2"
    },
    {
      "bufferView": 0,
      "componentType": 5125,
      "count": 262785,
      "type": "SCALAR"
    },
    {
      "bufferView": 2,
      "byteOffset": 1572768,
      "componentType": 5126,
      "count": 65532,
      "max": [
        4.511685848236084,
        -2.3497791290283203,
        -6.644656181335449
      ],
      "min": [
        -3.0836689472198486,
        -3.7320010662078857,
        -14.254840850830078
      ],
      "type": "VEC3"
    },
    {
      "bufferView": 2,
      "byteOffset": 2359152,
      "componentType": 5126,
      "count": 65532,
      "max": [
        0.999533474445343,
        0.9999998807907104,
        0.999934732913971
      ],
      "min": [
        -0.9996224641799927,
        -0.9999979734420776,
        -0.9999086260795593
      ],
      "type": "VEC3"
    },
    {
      "bufferView": 3,
      "byteOffset": 1048512,
      "componentType": 5126,
      "count": 65532,
      "max": [
        1.0,
        0.9999943971633911,
        1.0,
        1.0
      ],
      "min": [
        -0.9999980926513672,
        -0.9999992251396179,
        -0.9999998211860657,
        -1.0
      ],
      "type": "VEC4"
    },
    {
      "bufferView": 1,
      "byteOffset": 524256,
      "componentType": 5126,
      "count": 65532,
      "max": [
        0.914080023765564,
        0.9401800036430359
      ],
      "min": [
        0.005520000122487545,
        0.0019499999471008778
      ],
      "type": "VEC2"
    },
    {
      "bufferView": 0,
      "byteOffset": 1051140,
      "componentType": 5125,
      "count": 262785,
      "type": "SCALAR"
    },
    {
      "bufferView": 2,
      "byteOffset": 3145536,
      "componentType": 5126,
      "count": 65532,
      "max": [
        4.510839462280273,
        -2.047546625137329,
        -6.676923751831055
      ],
      "min": [
        -3.07495379447937,
        -3.721205711364746,
        -14.256271362304688
      ],
      "type": "VEC3"
    },
    {
      "bufferView": 2,
      "byteOffset": 3931920,
      "componentType": 5126,
      "count": 65532,
      "max": [
        0.9999821186065674,
        0.9999990463256836,
        0.9999930262565613
      ],
      "min": [
        -0.9996998906135559,
        -0.9999520778656006,
        -0.9999314546585083
      ],
      "type": "VEC3"
    },
    {
      "bufferView": 3,
      "byteOffset": 2097024,
      "componentType": 5126,
      "count": 65532,
      "max": [
        0.9999975562095642,
        0.9999984502792358,
        0.9999945163726807,
        1.0
      ],
      "min": [
        -0.9999905824661255,
        -0.9999994039535522,
        -0.9999989867210388,
        -1.0
      ],
      "type": "VEC4"
    },
    {
      "bufferView": 1,
      "byteOffset": 1048512,
      "componentType": 5126,
      "count": 65532,
      "max": [
        0.9150999784469604,
        0.9317600131034851
      ],
      "min": [
        0.003920000046491623,
        0.005009999964386225
      ],
      "type": "VEC2"
    },
    {
      "bufferView": 0,
      "byteOffset": 2102280,
      "componentType": 5125,
      "count": 267642,
      "type": "SCALAR"
    },
    {
      "bufferView": 2,
      "byteOffset": 4718304,
      "componentType": 5126,
      "count": 65532,
      "max": [
        4.498001575469971,
        -2.2412614822387695,
        -6.663965702056885
      ],
      "min": [
        -3.080458164215088,
        -3.718651056289673,
        -14.243447303771973
      ],
      "type": "VEC3"
    },
    {
      "bufferView": 2,
      "byteOffset": 5504688,
      "componentType": 5126,
      "count": 65532,
      "max": [
        0.9999433159828186,
        0.9999983906745911,
        0.9988696575164795
      ],
      "min": [
        -0.9998658895492554,
        -0.9994820952415466,
        -0.9998711347579956
      ],
      "type": "VEC3"
    },
    {
      "bufferView": 3,
      "byteOffset": 3145536,
      "componentType": 5126,
      "count": 65532,
      "max": [
        0.999994158744812,
        0.9997659921646118,
        0.9999245405197144,
        1.0
      ],
      "min": [
        -0.9999768733978271,
        -0.999997615814209,
        -0.9999988675117493,
        -1.0
      ],
      "type": "VEC4"
    },
    {
      "bufferView": 1,
      "byteOffset": 1572768,
      "componentType": 5126,
      "count": 65532,
      "max": [
        0.9112799763679504,
        0.9980400204658508
      ],
      "min": [
        0.009669999592006207,
        0.0028699999675154686
      ],
      "type": "VEC2"
    },
    {
      "bufferView": 0,
      "byteOffset": 3172848,
      "componentType": 5125,
      "count": 310266,
      "type": "SCALAR"
    },
    {
      "bufferView": 2,
      "byteOffset": 6291072,
      "componentType": 5126,
      "count": 65532,
      "max": [
        3.883596897125244,
        -2.1525607109069824,
        -6.832031726837158
      ],
      "min": [
        -3.0715317726135254,
        -3.682880163192749,
        -14.23841381072998
      ],
      "type": "VEC3"
    },
    {
      "bufferView": 2,
      "byteOffset": 7077456,
      "componentType": 5126,
      "count": 65532,
      "max": [
        0.999915599822998,
        0.9999990463256836,
        0.9999979138374329
      ],
      "min": [
        -0.9963686466217041,
        -0.8605550527572632,
        -0.9999948143959045
      ],
      "type": "VEC3"
    },
    {
      "bufferView": 3,
      "byteOffset": 4194048,
      "componentType": 5126,
      "count": 65532,
      "max": [
        0.9968868494033813,
        0.9998922348022461,
        0.9992268085479736,
        1.0
      ],
      "min": [
        -0.9999555349349976,
        -0.9998329877853394,
        -0.9999991059303284,
        -1.0
      ],
      "type": "VEC4"
    },
    {
      "bufferView": 1,
      "byteOffset": 2097024,
      "componentType": 5126,
      "count": 65532,
      "max": [
        0.9091699719429016,
        0.9933599829673767
      ],
      "min": [
        0.10846000164747238,
        0.2004300057888031
      ],
      "type": "VEC2"
    },
    {
      "bufferView": 0,
      "byteOffset": 4413912,
      "componentType": 5125,
      "count": 322152,
      "type": "SCALAR"
    },
    {
      "bufferView": 2,
      "byteOffset": 7863840,
      "componentType": 5126,
      "count": 65533,
      "max": [
        4.511072635650635,
        -2.047546625137329,
        -6.645577430725098
      ],
      "min": [
        -3.0884952545166016,
        -3.730362892150879,
        -14.256284713745117
      ],
      "type": "VEC3"
    },
    {
      "bufferView": 2,
      "byteOffset": 8650236,
      "componentType": 5126,
      "count": 65533,
      "max": [
        0.9999867677688599,
        0.9999996423721313,
        0.9999708533287048
      ],
      "min": [
        -0.999777615070343,
        -0.9998526573181152,
        -0.9998690485954285
      ],
      "type": "VEC3"
    },
    {
      "bufferView": 3,
      "byteOffset": 5242560,
      "componentType": 5126,
      "count": 65533,
      "max": [
        0.999976634979248,
        0.9999074935913086,
        1.0,
        1.0
      ],
      "min": [
        -1.0,
        -0.9999347925186157,
        -0.9999979734420776,
        -1.0
      ],
      "type": "VEC4"
    },
    {
      "bufferView": 1,
      "byteOffset": 2621280,
      "componentType": 5126,
      "count": 65533,
      "max": [
        0.9121900200843811,
        0.9352200031280518
      ],
      "min": [
        0.008820000104606152,
        0.003220000071451068
      ],
      "type": "VEC2"
    },
    {
      "bufferView": 0,
      "byteOffset": 5702520,
      "componentType": 5125,
      "count": 290889,
      "type": "SCALAR"
    },
    {
      "bufferView": 2,
      "byteOffset": 9436632,
      "componentType": 5126,
      "count": 65532,
      "max": [
        4.509215354919434,
        -2.0510730743408203,
        -6.658184051513672
      ],
      "min": [
        -3.044661283493042,
        -3.697779655456543,
        -14.179821968078613
      ],
      "type": "VEC3"
    },
    {
      "bufferView": 2,
      "byteOffset": 10223016,
      "componentType": 5126,
      "count": 65532,
      "max": [
        0.9999886751174927,
        0.9999998211860657,
        0.9999024868011475
      ],
      "min": [
        -0.9992669224739075,
        -0.9981999397277832,
        -0.9995392560958862
      ],
      "type": "VEC3"
    },
    {
      "bufferView": 3,
      "byteOffset": 6291088,
      "componentType": 5126,
      "count": 65532,
      "max": [
        0.9996359944343567,
        0.9997922778129578,
        0.9998289346694946,
        1.0
      ],
      "min": [
        -0.9985159635543823,
        -0.9998974800109863,
        -0.9999992847442627,
        -1.0
      ],
      "type": "VEC4"
    },
    {
      "bufferView": 1,
      "byteOffset": 3145544,
      "componentType": 5126,
      "count": 65532,
      "max": [
        0.9113600254058838,
        0.906440019607544
      ],
      "min": [
        0.023930000141263008,
        0.005739999935030937
      ],
      "type": "VEC2"
    },
    {
      "bufferView": 0,
      "byteOffset": 6866076,
      "componentType": 5125,
      "count": 293202,
      "type": "SCALAR"
    },
    {
      "bufferView": 2,
      "byteOffset": 11009400,
      "componentType": 5126,
      "count": 10025,
      "max": [
        -0.16300636529922485,
        -2.1593472957611084,
        -7.056820392608643
      ],
      "min": [
        -2.904503107070923,
        -3.2119877338409424,
        -12.878387451171875
      ],
      "type": "VEC3"
    },
    {
      "bufferView": 2,
      "byteOffset": 11129700,
      "componentType": 5126,
      "count": 10025,
      "max": [
        0.9982573390007019,
        0.9999430775642395,
        0.9979158043861389
      ],
      "min": [
        -0.9949381947517395,
        -0.8930731415748596,
        -0.9982625842094421
      ],
      "type": "VEC3"
    },
    {
      "bufferView": 3,
      "byteOffset": 7339600,
      "componentType": 5126,
      "count": 10025,
      "max": [
        0.8436300158500671,
        0.9994285702705383,
        0.46529003977775574,
        1.0
      ],
      "min": [
        -0.7003927230834961,
        -0.9984734654426575,
        -0.9999784231185913,
        -1.0
      ],
      "type": "VEC4"
    },
    {
      "bufferView": 1,
      "byteOffset": 3669800,
      "componentType": 5126,
      "count": 10025,
      "max": [
        0.827180027961731,
        0.9439299702644348
      ],
      "min": [
        0.148499995470047,
        0.5997200012207031
      ],
      "type": "VEC2"
    },
    {
      "bufferView": 0,
      "byteOffset": 8038884,
      "componentType": 5125,
      "count": 39375,
      "type": "SCALAR"
    }
  ],
  "asset": {
    "extras": {
      "author": "Nick G. Gizelis (https://sketchfab.com/aumakua)",
      "license": "CC-BY-4.0 (http://creativecommons.org/licenses/by/4.0/)",
      "source": "https://sketchfab.com/3d-models/the-pyramid-of-hellinikon-argolis-greece-aabe725804cb4967aa015777a4621c58",
      "title": "The Pyramid of Hellinikon, Argolis Greece"
    },
    "generator": "Sketchfab-12.68.0",
    "version": "2.0"
  },
  "bufferViews": [
    {
      "buffer": 0,
      "byteLength": 8196384,
      "name": "floatBufferViews",
      "target": 34963
    },
    {
      "buffer": 0,
      "byteLength": 3750000,
      "byteOffset": 8196384,
      "byteStride": 8,
      "name": "floatBufferViews",
      "target": 34962
    },
    {
      "buffer": 0,
      "byteLength": 11250000,
      "byteOffset": 11946384,
      "byteStride": 12,
      "name": "floatBufferViews",
      "target": 34962
    },
    {
      "buffer": 0,
      "byteLength": 7500000,
      "byteOffset": 23196384,
      "byteStride": 16,
      "name": "floatBufferViews",
      "target": 34962
    }
  ],
  "buffers": [
    {
      "byteLength": 30696384,
      "uri": "scene.bin"
    }
  ],
  "images": [
    {
      "uri": "textures/Scene_Material_baseColor.jpeg"
    },
    {
      "uri": "textures/Scene_Material_normal.png"
    }
  ],
  "materials": [
    {
      "doubleSided": true,
      "name": "Scene_Material",
      "normalTexture": {
        "index": 1,
        "scale": 0.5
      },
      "pbrMetallicRoughness": {
        "baseColorTexture": {
          "index": 0
        },
        "metallicFactor": 0.0,
        "roughnessFactor": 0.9
      }
    }
  ],
  "meshes": [
    {
      "name": "ZBrush_defualt_group_Scene_Material_0",
      "primitives": [
        {
          "attributes": {
            "NORMAL": 1,
            "POSITION": 0,
            "TANGENT": 2,
            "TEXCOORD_0": 3
          },
          "indices": 4,
          "material": 0,
          "mode": 4
        }
      ]
    },
    {
      "name": "ZBrush_defualt_group_Scene_Material_0",
      "primitives": [
        {
          "attributes": {
            "NORMAL": 6,
            "POSITION": 5,
            "TANGENT": 7,
            "TEXCOORD_0": 8
          },
          "indices": 9,
          "material": 0,
          "mode": 4
        }
      ]
    },
    {
      "name": "ZBrush_defualt_group_Scene_Material_0",
      "primitives": [
        {
          "attributes": {
            "NORMAL": 11,
            "POSITION": 10,
            "TANGENT": 12,
            "TEXCOORD_0": 13
          },
          "indices": 14,
          "material": 0,
          "mode": 4
        }
      ]
    },
    {
      "name": "ZBrush_defualt_group_Scene_Material_0",
      "primitives": [
        {
          "attributes": {
            "NORMAL": 16,
            "POSITION": 15,
            "TANGENT": 17,
            "TEXCOORD_0": 18
          },
          "indices": 19,
          "material": 0,
          "mode": 4
        }
      ]
    },
    {
      "name": "ZBrush_defualt_group_Scene_Material_0",
      "primitives": [
        {
          "attributes": {
            "NORMAL": 21,
            "POSITION": 20,
            "TANGENT": 22,
            "TEXCOORD_0": 23
          },
          "indices": 24,
          "material": 0,
          "mode": 4
        }
      ]
    },
    {
      "name": "ZBrush_defualt_group_Scene_Material_0",
      "primitives": [
        {
          "attributes": {
            "NORMAL": 26,
            "POSITION": 25,
            "TANGENT": 27,
            "TEXCOORD_0": 28
          },
          "indices": 29,
          "material": 0,
          "mode": 4
        }
      ]
    },
    {
      "name": "ZBrush_defualt_group_Scene_Material_0",
      "primitives": [
        {
          "attributes": {
            "NORMAL": 31,
            "POSITION": 30,
            "TANGENT": 32,
            "TEXCOORD_0": 33
          },
          "indices": 34,
          "material": 0,
          "mode": 4
        }
      ]
    },
    {
      "name": "ZBrush_defualt_group_Scene_Material_0",
      "primitives": [
        {
          "attributes": {
            "NORMAL": 36,
            "POSITION": 35,
            "TANGENT": 37,
            "TEXCOORD_0": 38
          },
          "indices": 39,
          "material": 0,
          "mode": 4
        }
      ]
    }
  ],
  "nodes": [
    {
      "children": [
        1
      ],
      "matrix": [
        1.0,
        0.0,
        0.0,
        0.0,
        0.0,
        2.220446049250313e-16,
        -1.0,
        0.0,
        0.0,
        1.0,
        2.220446049250313e-16,
        0.0,
        0.0,
        0.0,
        0.0,
        1.0
      ],
      "name": "Sketchfab_model"
    },
    {
      "children": [
        2
      ],
      "matrix": [
        1.0,
        0.0,
        0.0,
        0.0,
        0.0,
        0.0,
        1.0,
        0.0,
        0.0,
        -1.0,
        0.0,
        0.0,
        0.0,
        0.0,
        0.0,
        1.0
      ],
      "name": "b207a85cb10a4aa1b4be3a5440d89638.fbx"
    },
    {
      "children": [
        3
      ],
      "name": "RootNode"
    },
    {
      "children": [
        4,
        5,
        6,
        7,
        8,
        9,
        10,
        11
      ],
      "name": "ZBrush_defualt_group"
    },
    {
      "mesh": 0,
      "name": "ZBrush_defualt_group_Scene_Material_0"
    },
    {
      "mesh": 1,
      "name": "ZBrush_defualt_group_Scene_Material_0"
    },
    {
      "mesh": 2,
      "name": "ZBrush_defualt_group_Scene_Material_0"
    },
    {
      "mesh": 3,
      "name": "ZBrush_defualt_group_Scene_Material_0"
    },
    {
      "mesh": 4,
      "name": "ZBrush_defualt_group_Scene_Material_0"
    },
    {
      "mesh": 5,
      "name": "ZBrush_defualt_group_Scene_Material_0"
    },
    {
      "mesh": 6,
      "name": "ZBrush_defualt_group_Scene_Material_0"
    },
    {
      "mesh": 7,
      "name": "ZBrush_defualt_group_Scene_Material_0"
    }
  ],
  "samplers": [
    {
      "magFilter": 9729,
      "minFilter": 9987,
      "wrapS": 10497,
      "wrapT": 10497
    }
  ],
  "scene": 0,
  "scenes": [
    {
      "name": "Sketchfab_Scene",
      "nodes": [
        0
      ]
    }
  ],
  "textures": [
    {
      "sampler": 0,
      "source": 0
    },
    {
      "sampler": 0,
      "source": 1
    }
  ]
}
